<?xml version="1.0" standalone="no"?>
<!DOCTYPE svg PUBLIC "-//W3C//DTD SVG 20010904//EN"
 "http://www.w3.org/TR/2001/REC-SVG-20010904/DTD/svg10.dtd">
<svg version="1.0" xmlns="http://www.w3.org/2000/svg"
 width="519.000000pt" height="519.000000pt" viewBox="0 0 519.000000 519.000000"
 preserveAspectRatio="xMidYMid meet">
<metadata>
Created by potrace 1.11, written by Peter Selinger 2001-2013
</metadata>
<g transform="translate(0.000000,519.000000) scale(0.100000,-0.100000)"
fill="#000000" stroke="none">
<path d="M2316 4911 c-132 -77 -243 -144 -247 -148 -9 -9 654 -396 1053 -616
242 -134 295 -174 336 -251 l27 -51 2 -788 c1 -434 3 -790 5 -792 2 -1 91 48
198 110 107 63 217 126 244 142 91 52 85 -9 86 874 2 856 4 817 -62 875 -19
16 -129 84 -244 149 -115 65 -407 233 -649 373 -275 159 -453 256 -475 259
-31 4 -64 -13 -274 -136z"/>
<path d="M1810 4613 c-16 -7 -1229 -703 -1321 -759 -30 -18 -61 -45 -67 -59
-15 -34 -17 -585 -2 -585 13 0 811 455 1074 613 256 153 291 169 366 169 76 0
105 -14 420 -198 300 -177 988 -570 1013 -580 16 -6 17 13 17 270 0 300 -1
306 -57 357 -15 14 -181 113 -368 219 -187 107 -479 275 -650 374 -273 158
-316 180 -360 182 -27 2 -57 1 -65 -3z"/>
<path d="M4218 3303 c-3 -878 1 -823 -65 -885 -15 -14 -118 -77 -228 -139
-110 -62 -328 -187 -485 -278 -157 -92 -314 -179 -350 -195 -197 -87 -250
-127 -250 -191 0 -58 36 -86 238 -187 151 -75 195 -93 229 -92 35 1 76 20 230
109 104 60 409 236 678 390 382 220 495 289 513 315 l22 33 0 789 c0 682 -2
793 -15 818 -9 18 -40 43 -83 66 -37 21 -139 79 -227 129 -88 51 -170 97 -182
104 l-22 11 -3 -797z"/>
<path d="M1730 3747 c-41 -24 -221 -129 -400 -233 -179 -104 -446 -259 -594
-344 -224 -129 -273 -162 -295 -194 l-26 -40 -3 -770 c-2 -532 0 -783 8 -808
10 -34 23 -45 158 -125 143 -85 346 -193 364 -193 5 0 8 337 7 784 -1 861 -4
819 59 879 15 14 153 97 307 185 154 87 384 221 510 297 127 76 266 153 310
172 122 52 165 80 181 119 20 47 18 59 -16 98 -22 24 -85 61 -214 125 -225
112 -242 114 -356 48z"/>
<path d="M1605 2831 c-6 -5 -95 -57 -200 -117 -211 -119 -241 -142 -255 -193
-14 -52 -13 -1524 1 -1576 17 -62 69 -101 265 -204 400 -211 486 -263 784
-472 46 -32 120 -74 165 -91 76 -31 86 -33 215 -33 128 0 139 2 212 31 84 34
226 124 272 173 16 17 28 32 25 35 -10 9 -713 415 -999 578 -351 199 -391 230
-407 314 -6 29 -9 339 -8 779 1 598 -1 735 -12 758 -13 27 -40 35 -58 18z"/>
<path d="M4420 1739 c-420 -232 -500 -279 -704 -412 -204 -133 -287 -167 -412
-167 -138 0 -216 32 -459 190 -179 116 -322 199 -670 390 -143 79 -269 149
-280 156 -11 8 -24 14 -30 14 -7 0 -10 -91 -10 -277 1 -257 2 -281 20 -311 26
-42 34 -48 415 -265 179 -101 456 -261 616 -354 160 -94 306 -175 324 -181 80
-28 123 -15 325 103 83 48 371 213 640 367 309 175 502 291 523 313 l32 35 0
290 c0 159 -1 290 -2 289 -2 0 -149 -81 -328 -180z"/>
</g>
</svg>
